<?xml version="1.0" encoding="UTF-8"?><svg xmlns="http://www.w3.org/2000/svg" viewBox="0 0 258.04 154.68"><defs><style>.d{fill:#00d2d3;}.e{fill:#5f27cd;}</style></defs><g id="a"/><g id="b"><g id="c"><g><path class="e" d="M194.07,36.79c.83,0,1.52-.63,1.55-1.46,.03-.64,0-1.28,0-1.91h0c0-.61-.02-1.23,0-1.84,.04-.94-.58-1.47-1.61-1.42-.9,.04-1.64,.65-1.66,1.47-.02,1.22-.02,2.45,0,3.68,.02,.79,.84,1.49,1.7,1.49Z"/><path class="e" d="M198.91,33.43c0,.56,0,1.12,0,1.69,0,.08,0,.15,0,.23,.04,.76,.8,1.44,1.61,1.45,.89,.01,1.64-.62,1.66-1.46,.03-1.25,.03-2.5,0-3.75-.02-.9-.71-1.45-1.7-1.42-1.05,.02-1.54,.45-1.57,1.44-.02,.61,0,1.23,0,1.84h0Z"/><path class="e" d="M206.97,36.85c.57,.07,1.13,.26,1.8,.42v-1.1c0-5.8,0-11.6,0-17.39,0-.23,0-.46,0-.69-.02-.67-.42-1.17-.97-1.39-.65-.26-1.49-.38-1.93,.33-.32,.51-.45,1.21-.46,1.83-.03,5.11,0,10.22-.03,15.32,0,.83-.18,1.65-.3,2.59,0,.03,.02,.06,.06,.06,.66,0,1.25-.05,1.83,.02Z"/><path class="e" d="M187.39,36.8c.97,.03,1.69-.71,1.72-1.8,.01-.42,0-.84-.03-1.25-.06-.71-.74-1.37-1.45-1.41-1.23-.08-1.87,.68-1.87,2.22,0,.13,0,.25,0,.38,.01,1.08,.67,1.83,1.63,1.86Z"/><path class="e" d="M208.69,.94c-21.76-4.76-43.26,9.03-48.01,30.79-4.76,21.76,9.03,43.26,30.79,48.01,3.85,.84,7.69,1.09,11.43,.83-1.37,7.06-4.14,13.9-4.14,13.9l-.02,.03h2.57c4.9-1.76,9.35-4.69,12.81-7.46,4.12-3.01,7.77-6.38,10.95-10.12,3.36-3.95,6.19-8.1,8.5-12.46,2.31-4.37,4.07-8.57,5.29-12.61,.36-1.21,.62-2.43,.77-3.65,4.28-21.51-9.43-42.56-30.94-47.26Zm5.27,56.06c-.61,.88-1.24,1.75-1.79,2.67-.18,.3-.15,.74-.16,1.12h0c-.03,2.93-2.42,5.29-5.35,5.29h-13.59c-3.91,0-7.14-3.04-7.37-6.94v-.02c-.06-.99-.59-1.95-.92-2.92-.21-.62-.45-1.22-.66-1.84-.37-1.1-.76-2.2-1.1-3.31-.13-.43-.24-1.15-.24-1.59,0-5.31,.02-10.62,0-15.93,0-1.59,.85-2.6,2.05-3.45,1.51-1.06,3.13-.67,4.88-.54,.02,0,.04,0,.05-.03,.6-1.06,1.6-1.99,2.98-2.32,.79-.19,1.67-.25,2.46-.1,.63,.12,1.16,.65,1.77,.96,.2,.1,.51,.06,.69-.08,1.32-1.04,2.79-1.23,4.46-.81,.03-.3,.07-.59,.07-.88,0-2.55-.03-5.11,.03-7.66,.02-.86,.12-1.8,.49-2.57,.52-1.08,1.29-2.06,2.64-2.29,.71-.12,1.42-.4,2.12-.36,2.02,.12,4.23,1.84,4.23,4.18,0,6.74,.02,13.48,0,20.22,0,.63,.25,1.22,.69,1.67,1.02,1.04,1.92,2.2,2.21,3.67,.22,1.11,.45,2.23,.48,3.35,.07,2.42-.06,4.86,.06,7.28,.06,1.31-.52,2.25-1.19,3.22Z"/><path class="e" d="M211.59,43.59c-1.19-2.45-3.32-3.61-5.95-3.8-1.81-.13-3.63,.04-5.44-.05-1-.05-1.07,.7-.73,1.3,.09,.15,.18,.3,.28,.45,.68,1.05,1.51,1.94,2.72,2.36,.87,.3,1.79,.47,2.68,.73,.16,.04,.38,.22,.39,.35,.03,.84,.02,1.68,.02,2.39,0,.02-.02,.04-.04,.05-.69,.22-1.24,.43-1.8,.55-2.68,.6-4.84,3.27-4.81,6.02,0,.45,0,.89-.01,1.34,0,.17-.03,.37-.12,.49-.36,.45-2.6,.43-2.96-.04-.12-.16-.16-.42-.15-.64,.06-1.41,.27-2.78,.76-4.12,.63-1.74,1.64-3.15,3.09-4.28,.3-.23,.52-.52-.01-.93-.8-.62-1.63-1.31-2.14-2.15-.69-1.14-1.1-2.46-1.62-3.7-.21-.16-.61-.16-1.01-.16-1.21,.02-2.41,.09-3.46-.75-.21-.17-.8-.13-1.05,.04-.74,.52-1.52,.74-2.41,.71-.64-.02-1.28,0-2.04,0v.54c0,2.76-.04,5.52,.02,8.28,.02,.78,.29,1.57,.52,2.34,.35,1.18,.76,2.35,1.13,3.53,.31,.99,.63,1.99,.91,2.99,.25,.88,.52,1.77,.68,2.67v.03c.26,1.53,1.6,2.8,3.15,2.79,4.77-.02,9.55,0,14.32,0h.02c1.24,0,2.26-1.01,2.27-2.25,0-.35,0-.71,.01-1.06,0-.22,0-.49,.12-.66,.7-1.07,1.48-2.11,2.15-3.2,.4-.65,1.05-1.19,1.04-2.07-.02-2.58,.03-5.16-.03-7.74-.02-.79-.15-1.64-.49-2.34Z"/></g><g><path class="d" d="M185.76,39.74c.77,0,1.4-.02,2.04,0,.89,.03,1.67-.19,2.41-.71,.25-.17,.83-.21,1.05-.04,1.05,.84,2.25,.77,3.46,.75,.4,0,.8,0,1.01,.16,.53,1.24,.93,2.56,1.62,3.7,.51,.84,1.34,1.53,2.14,2.15,.53,.41,.31,.7,.01,.93-1.45,1.13-2.46,2.55-3.09,4.28-.49,1.34-.7,2.71-.76,4.12,0,.21,.03,.48,.15,.64,.36,.46,2.6,.48,2.96,.04,.1-.12,.12-.33,.12-.49,0-.1,.02-.2,0-.3-.31-4.44,2.55-6.73,5.34-7.19,.05,0,.09-.03,.14-.04,.7-.22,1.17-.88,1.17-1.61,0-.39,0-.79-.02-1.19,0-.12-.23-.3-.39-.35-.89-.26-1.81-.43-2.68-.73-1.21-.41-2.04-1.31-2.72-2.36-.1-.15-.19-.29-.28-.45-.34-.61-.27-1.35,.73-1.3,1.81,.08,3.64-.08,5.44,.05,2.63,.18,4.76,1.35,5.95,3.8,.34,.7,.47,1.55,.49,2.34,.06,2.58,.01,5.16,.03,7.74,0,.88-.64,1.42-1.04,2.07-.67,1.09-1.44,2.12-2.15,3.2-.11,.17-.12,.44-.12,.66,0,.35,0,.7-.01,1.05,0,1.24-1.04,2.26-2.27,2.26h-.02c-4.92,0-9.85-.01-14.77,0-1.31,0-2.57-1.04-2.65-2.35-.01-.16-.03-.32-.05-.47-.16-.9-.43-1.79-.68-2.67-.29-1-.6-2-.91-2.99-.37-1.18-.78-2.34-1.13-3.53-.22-.77-.5-1.56-.52-2.34-.06-2.76-.02-5.52-.02-8.28,0-.17,0-.35,0-.54Z"/><path class="d" d="M208.77,37.27c-.67-.16-1.23-.36-1.8-.42-.6-.07-1.21-.02-1.9-.02,.12-.96,.3-1.81,.3-2.65,.03-5.11,0-10.22,.03-15.32,0-.62,.14-1.32,.46-1.83,.44-.71,1.27-.58,1.93-.33,.55,.22,.95,.72,.97,1.39,0,.23,0,.46,0,.69,0,5.8,0,11.6,0,17.39,0,.33,0,.66,0,1.1Z"/><path class="d" d="M198.91,33.43c0-.61-.02-1.23,0-1.84,.03-.98,.52-1.42,1.57-1.44,.99-.02,1.67,.52,1.7,1.42,.03,1.25,.03,2.5,0,3.75-.02,.83-.78,1.47-1.66,1.46-.81,0-1.56-.69-1.61-1.45,0-.08,0-.15,0-.23,0-.56,0-1.12,0-1.69h0Z"/><path class="d" d="M195.63,33.42c0,.64,.02,1.28,0,1.91-.03,.83-.72,1.46-1.55,1.46-.85,0-1.68-.7-1.7-1.49-.02-1.22-.03-2.45,0-3.68,.02-.82,.76-1.43,1.66-1.47,1.02-.05,1.64,.49,1.61,1.42-.02,.61,0,1.23,0,1.84h0Z"/><path class="d" d="M185.76,34.56c0-1.54,.64-2.3,1.88-2.22,.64,.04,1.38,.72,1.44,1.37,.04,.43,.04,.86,.03,1.3-.03,1.08-.75,1.82-1.72,1.8-.96-.03-1.62-.78-1.63-1.86,0-.13,0-.25,0-.38Z"/></g><path class="e" d="M190.65,117.18c0,3.03-.57,5.88-1.72,8.54-1.15,2.66-2.71,4.98-4.7,6.96-1.99,1.98-4.31,3.54-6.98,4.68s-5.51,1.72-8.54,1.72-5.88-.57-8.54-1.72-4.98-2.71-6.96-4.68c-1.98-1.98-3.54-4.29-4.68-6.96-1.15-2.66-1.72-5.51-1.72-8.54v-32.92h10.93v32.92c0,1.5,.29,2.92,.86,4.24,.57,1.33,1.36,2.48,2.35,3.48,.99,.99,2.16,1.78,3.5,2.35s2.76,.86,4.26,.86,2.92-.29,4.26-.86,2.5-1.36,3.5-2.35c.99-.99,1.78-2.15,2.35-3.48,.57-1.32,.86-2.74,.86-4.24v-32.92h10.97v32.92Z"/><path class="e" d="M208.64,154.68h-10.51v-56.54h2.52l4.17,4.93c.94-.89,1.97-1.73,3.1-2.52,1.12-.79,2.29-1.47,3.5-2.04,1.21-.57,2.47-1.03,3.77-1.36,1.3-.33,2.61-.5,3.94-.5,2.88,0,5.59,.52,8.12,1.55,2.54,1.03,4.75,2.49,6.65,4.38,1.9,1.89,3.4,4.16,4.49,6.82s1.64,5.61,1.64,8.85-.55,6.39-1.64,9.08-2.59,4.97-4.49,6.84c-1.9,1.87-4.12,3.31-6.65,4.3-2.54,.99-5.24,1.49-8.12,1.49-.92,0-1.83-.1-2.73-.31-.91-.2-1.8-.48-2.68-.82-.88-.34-1.75-.73-2.6-1.17-.85-.43-1.68-.88-2.46-1.34v18.35Zm20.91-36.43c0-1.73-.27-3.29-.82-4.66-.55-1.38-1.29-2.54-2.24-3.5-.94-.96-2.05-1.69-3.33-2.2-1.27-.51-2.62-.76-4.05-.76s-2.77,.25-4.03,.76c-1.26,.51-2.36,1.24-3.31,2.2-.94,.96-1.69,2.12-2.24,3.5-.55,1.38-.82,2.93-.82,4.66s.27,3.17,.82,4.55c.55,1.38,1.29,2.55,2.24,3.52,.94,.97,2.04,1.72,3.31,2.26s2.61,.8,4.03,.8,2.78-.27,4.05-.8,2.38-1.29,3.33-2.26c.94-.97,1.69-2.14,2.24-3.52,.55-1.38,.82-2.89,.82-4.55Z"/><path class="e" d="M255.67,125.55h-8.53l-2.33-41.29h13.23l-2.37,41.29Zm2.29,9.63c0,.92-.17,1.78-.52,2.58s-.81,1.5-1.4,2.08c-.59,.59-1.27,1.05-2.06,1.4-.79,.34-1.63,.52-2.52,.52s-1.77-.17-2.56-.52c-.79-.34-1.49-.81-2.08-1.4-.6-.59-1.07-1.28-1.41-2.08-.34-.8-.52-1.66-.52-2.58s.17-1.73,.52-2.52c.34-.79,.82-1.48,1.41-2.06,.6-.59,1.29-1.05,2.08-1.4,.79-.34,1.64-.52,2.56-.52s1.73,.17,2.52,.52,1.48,.81,2.06,1.4c.59,.59,1.05,1.27,1.4,2.06s.52,1.63,.52,2.52Z"/><path class="d" d="M0,38.9c0-2.39,.46-4.62,1.37-6.71s2.15-3.92,3.72-5.49,3.4-2.81,5.49-3.72c2.09-.91,4.33-1.37,6.71-1.37h26.46v11.54H17.29c-.8,0-1.55,.15-2.25,.44-.7,.3-1.31,.7-1.83,1.23-.52,.52-.93,1.13-1.23,1.83-.3,.7-.44,1.45-.44,2.25s.15,1.56,.44,2.27c.29,.71,.7,1.33,1.23,1.85s1.13,.93,1.83,1.23c.7,.29,1.45,.44,2.25,.44h11.54c2.39,0,4.63,.45,6.73,1.35,2.1,.9,3.94,2.13,5.51,3.7,1.57,1.57,2.8,3.4,3.7,5.51,.9,2.1,1.35,4.35,1.35,6.73s-.45,4.62-1.35,6.71c-.9,2.09-2.13,3.92-3.7,5.49-1.57,1.57-3.4,2.81-5.51,3.72-2.1,.91-4.35,1.37-6.73,1.37H3.22v-11.54H28.83c.8,0,1.55-.15,2.25-.44,.7-.29,1.31-.7,1.83-1.23,.52-.52,.93-1.13,1.23-1.83,.29-.7,.44-1.45,.44-2.25s-.15-1.55-.44-2.25c-.3-.7-.7-1.31-1.23-1.83-.52-.52-1.13-.93-1.83-1.23-.7-.29-1.45-.44-2.25-.44h-11.54c-2.39,0-4.62-.46-6.71-1.37-2.09-.91-3.92-2.15-5.49-3.72-1.57-1.57-2.81-3.4-3.72-5.51-.91-2.1-1.37-4.35-1.37-6.73Z"/><path class="d" d="M65.22,27.5c0,1.02-.19,1.97-.58,2.85-.39,.88-.92,1.66-1.59,2.31-.67,.66-1.45,1.18-2.35,1.57-.9,.39-1.86,.58-2.87,.58s-1.98-.19-2.88-.58c-.9-.39-1.68-.91-2.33-1.57-.66-.66-1.18-1.43-1.57-2.31-.39-.88-.58-1.84-.58-2.85s.19-1.94,.58-2.83c.39-.9,.91-1.67,1.57-2.33s1.43-1.18,2.33-1.57c.9-.39,1.86-.58,2.88-.58s1.98,.19,2.87,.58c.9,.39,1.68,.91,2.35,1.57,.67,.66,1.2,1.43,1.59,2.33,.39,.9,.58,1.84,.58,2.83Zm-1.89,51.76h-11.06V38.44h11.06v40.83Z"/><path class="d" d="M113.15,73.84c0,3.03-.58,5.87-1.73,8.52-1.15,2.65-2.73,4.97-4.72,6.96-2,1.98-4.33,3.55-6.99,4.7-2.67,1.15-5.52,1.73-8.54,1.73l-5.51-.08v-10.98l5.43,.08c1.71,0,3.18-.22,4.38-.66,1.21-.44,2.22-1.05,3.05-1.81,.83-.76,1.49-1.64,1.99-2.63,.5-.99,.89-2.04,1.19-3.14-.43,.7-1.05,1.27-1.85,1.71-.8,.44-1.7,.8-2.67,1.09-.98,.28-2,.48-3.06,.58-1.06,.11-2.04,.16-2.96,.16-3.03,0-5.88-.52-8.54-1.57-2.67-1.04-5-2.54-7-4.48-2-1.94-3.57-4.32-4.72-7.14-1.15-2.81-1.73-5.99-1.73-9.53,0-3.24,.58-6.26,1.73-9.05,1.15-2.79,2.73-5.2,4.72-7.24,2-2.04,4.33-3.63,7-4.78,2.67-1.15,5.51-1.73,8.54-1.73,1.39,0,2.78,.17,4.14,.52,1.37,.35,2.7,.83,3.98,1.45,1.29,.62,2.51,1.34,3.68,2.17,1.17,.83,2.26,1.73,3.28,2.69l4.26-5.11h2.65v37.55Zm-11.06-16.48c0-1.5-.29-2.96-.86-4.36s-1.36-2.65-2.35-3.74c-.99-1.09-2.15-1.96-3.48-2.61-1.33-.66-2.74-.98-4.24-.98s-2.91,.25-4.24,.76c-1.33,.51-2.48,1.26-3.46,2.25-.98,.99-1.75,2.22-2.31,3.68s-.84,3.13-.84,5.01,.28,3.41,.84,4.85c.56,1.43,1.33,2.66,2.31,3.68,.98,1.02,2.13,1.8,3.46,2.35,1.33,.55,2.74,.82,4.24,.82s2.92-.33,4.24-.98,2.49-1.53,3.48-2.61c.99-1.09,1.78-2.33,2.35-3.74s.86-2.86,.86-4.36Z"/><path class="d" d="M130.26,79.26h-10.98V36.2h2.65l3.62,4.18c1.77-1.61,3.77-2.85,6.01-3.72,2.24-.87,4.58-1.31,7.02-1.31,2.63,0,5.11,.5,7.44,1.51,2.33,1,4.37,2.39,6.11,4.14,1.74,1.76,3.12,3.81,4.12,6.15,1,2.35,1.51,4.85,1.51,7.5v24.61h-10.98v-24.61c0-1.13-.21-2.19-.64-3.2-.43-1-1.02-1.88-1.77-2.63-.75-.75-1.62-1.34-2.61-1.77-.99-.43-2.05-.64-3.18-.64s-2.24,.21-3.26,.64-1.9,1.02-2.65,1.77c-.75,.75-1.34,1.63-1.77,2.63-.43,1.01-.64,2.07-.64,3.2v24.61Z"/></g></g></svg>