<?xml version="1.0" encoding="UTF-8"?>
<svg width="487px" height="500px" viewBox="0 0 487 500" version="1.1" xmlns="http://www.w3.org/2000/svg" xmlns:xlink="http://www.w3.org/1999/xlink">
    <title>Illustration 5</title>
    <defs>
        <path d="M89.0476418,49.2823006 C89.0476418,52.7648738 88.7210375,56.1650734 88.096355,59.4462888 C83.8674488,81.7878425 65.9662232,89.4119778 44.5219605,89.4119778 C19.9352679,89.4119778 1.76252921e-14,76.5022025 1.76252921e-14,49.2823006 C1.76252921e-14,22.0623987 19.9352679,2.60133202e-14 44.5219605,2.60133202e-14 C61.4264227,2.60133202e-14 76.1323003,10.424838 83.6731399,25.7875164 C87.100005,32.770968 89.0476418,40.7749372 89.0476418,49.2823006" id="path-1"></path>
    </defs>
    <g id="Page-1" stroke="none" stroke-width="1" fill="none" fill-rule="evenodd">
        <g id="User-portal---Home" transform="translate(-892.000000, -59.000000)">
            <g id="Group" transform="translate(0.000000, 48.000000)">
                <g id="Illustration-5" transform="translate(892.000000, 14.000000)">
                    <g id="Background">
                        <g id="Group-55" transform="translate(269.994594, 109.135648)">
                            <path d="M125.35284,25.9324513 L124.763007,25.9324513 C116.613413,25.9324513 110.006559,18.6524597 110.006559,9.67209356 L110.006559,0 L140.109288,0 L140.109288,9.67209356 C140.109288,18.6524597 133.502767,25.9324513 125.35284,25.9324513" id="Fill-1" fill="#DCEEFF"></path>
                            <polygon id="Fill-4" fill="#B6D4FF" points="16.4093753 288.864352 9.5980419 288.864352 9.5980419 270.69405 19.9231004 270.69405"></polygon>
                            <polygon id="Fill-6" fill="#ECF6FF" points="2.786243 270.69416 121.091517 270.69416 121.091517 30.7079719 2.786243 30.7079719"></polygon>
                            <polygon id="Fill-8" fill="#ECF6FF" points="9.59794215 288.864352 2.78627625 288.864352 2.78627625 270.69405 12.792147 270.69405"></polygon>
                            <polygon id="Fill-9" fill="#CCE3FF" points="126.567848 288.864352 121.091451 288.864352 121.091451 270.69405 129.135979 270.69405"></polygon>
                            <polygon id="Fill-10" fill="#ECF6FF" points="114.280117 288.864352 121.091451 288.864352 121.091451 270.69405 111.085912 270.69405"></polygon>
                            <polygon id="Fill-11" fill="#B6D4FF" points="57.8761188 288.864352 51.0644529 288.864352 51.0644529 270.69405 60.4316157 270.69405"></polygon>
                            <polygon id="Fill-12" fill="#B6D4FF" points="156.284858 288.864352 150.011157 288.864352 147.65748 270.69405 156.284858 270.69405"></polygon>
                            <polygon id="Fill-13" fill="#CCE3FF" points="162.558294 288.864352 156.284925 288.864352 154.225499 270.69405 162.558294 270.69405"></polygon>
                            <polygon id="Fill-14" fill="#C5E0FC" points="51.0643532 288.864352 44.2530198 288.864352 41.6975229 270.69405 51.0643532 270.69405"></polygon>
                            <polygon id="Fill-15" fill="#B6D4FF" points="7.78917836 168.591819 116.088582 168.591819 116.088582 126.179182 7.78917836 126.179182"></polygon>
                            <polygon id="Fill-16" fill="#CCE3FF" points="7.78917836 168.591819 41.2929192 168.591819 41.2929192 126.179182 7.78917836 126.179182"></polygon>
                            <polygon id="Fill-17" fill="#B6D4FF" points="7.78917836 215.087408 116.088582 215.087408 116.088582 172.674404 7.78917836 172.674404"></polygon>
                            <polygon id="Fill-18" fill="#CCE3FF" points="7.78917836 215.087408 41.2929192 215.087408 41.2929192 172.674404 7.78917836 172.674404"></polygon>
                            <polygon id="Fill-19" fill="#B6D4FF" points="7.78917836 261.583362 116.088582 261.583362 116.088582 219.170358 7.78917836 219.170358"></polygon>
                            <polygon id="Fill-20" fill="#CCE3FF" points="7.78917836 261.583362 41.2929192 261.583362 41.2929192 219.170358 7.78917836 219.170358"></polygon>
                            <polygon id="Fill-21" fill="#B6D4FF" points="7.78917836 77.2676768 116.088582 77.2676768 116.088582 34.8550391 7.78917836 34.8550391"></polygon>
                            <polygon id="Fill-22" fill="#CCE3FF" points="7.78917836 77.2676768 41.2929192 77.2676768 41.2929192 34.8550391 7.78917836 34.8550391"></polygon>
                            <polygon id="Fill-23" fill="#B6D4FF" points="7.78917836 122.096231 116.088582 122.096231 116.088582 81.6408011 7.78917836 81.6408011"></polygon>
                            <polygon id="Fill-24" fill="#CCE3FF" points="7.78917836 122.096231 41.2929192 122.096231 41.2929192 81.6408011 7.78917836 81.6408011"></polygon>
                            <polygon id="Fill-25" fill="#CCE3FF" points="121.091517 270.69416 162.558327 270.69416 162.558327 30.7079719 121.091517 30.7079719"></polygon>
                            <polygon id="Fill-26" fill="#E6F4FF" points="0 30.7079719 117.177145 30.7079719 117.177145 22.9223744 0 22.9223744"></polygon>
                            <polygon id="Fill-27" fill="#CCE3FF" points="117.177145 30.7079719 165.27375 30.7079719 165.27375 22.9223744 117.177145 22.9223744"></polygon>
                            <path d="M101.321228,203.867537 L101.321228,203.867904 C101.321228,205.933194 99.8017612,207.607555 97.9271982,207.607555 L70.6599204,207.607555 L70.6599204,200.127886 L97.9271982,200.127886 C99.8017612,200.127886 101.321228,201.802247 101.321228,203.867537" id="Fill-28" fill="#CCE3FF"></path>
                            <path d="M82.7616909,203.867537 L82.7616909,203.867904 C82.7616909,205.063771 81.8819297,206.032849 80.7970238,206.032849 L70.7007166,206.032849 C70.6781074,206.032849 70.6601531,206.012698 70.6601531,205.987784 L70.6601531,201.747656 C70.6601531,201.722743 70.6781074,201.702592 70.7007166,201.702592 L80.7970238,201.702592 C81.8819297,201.702592 82.7616909,202.671669 82.7616909,203.867537" id="Fill-29" fill="#DCEEFF"></path>
                            <path d="M105.17276,207.607555 L105.17276,215.087591 L75.3802416,215.087591 C73.5060111,215.087591 71.9862119,213.413229 71.9862119,211.347573 C71.9862119,209.281917 73.5060111,207.607555 75.3802416,207.607555 L105.17276,207.607555 Z" id="Fill-30" fill="#CCE3FF"></path>
                            <path d="M105.17276,209.203291 L105.17276,213.491781 L92.9761309,213.491781 C91.9015321,213.491781 91.0304156,212.531863 91.0304156,211.347719 C91.0304156,210.16321 91.9015321,209.203291 92.9761309,209.203291 L105.17276,209.203291 Z" id="Fill-31" fill="#DCEEFF"></path>
                            <path d="M105.046116,192.647813 L105.046116,200.127849 L77.2086221,200.127849 C75.3343916,200.127849 73.8145925,198.453488 73.8145925,196.387831 C73.8145925,194.322175 75.3343916,192.647813 77.2086221,192.647813 L105.046116,192.647813 Z" id="Fill-32" fill="#CCE3FF"></path>
                            <path d="M105.046116,194.243586 L105.046116,198.532076 L94.8045114,198.532076 C93.7299127,198.532076 92.8584636,197.572158 92.8584636,196.388014 C92.8584636,195.203505 93.7299127,194.243586 94.8045114,194.243586 L105.046116,194.243586 Z" id="Fill-33" fill="#DCEEFF"></path>
                            <polygon id="Fill-34" fill="#DCEEFF" points="33.525685 168.674621 52.1908532 168.674621 52.1908532 139.919204 33.525685 139.919204"></polygon>
                            <polygon id="Fill-35" fill="#DCEEFF" points="33.525685 138.903596 52.1908532 138.903596 52.1908532 137.126648 33.525685 137.126648"></polygon>
                            <path d="M52.8965906,143.879051 L32.8196816,143.879051 C31.7091742,143.879051 30.8091313,142.886891 30.8091313,141.663178 L30.8091313,141.119102 C30.8091313,139.895389 31.7091742,138.903596 32.8196816,138.903596 L52.8965906,138.903596 C54.0070979,138.903596 54.9071409,139.895389 54.9071409,141.119102 L54.9071409,141.663178 C54.9071409,142.886891 54.0070979,143.879051 52.8965906,143.879051" id="Fill-36" fill="#E6F4FF"></path>
                            <polygon id="Fill-37" fill="#ECF6FF" points="18.7416402 261.583362 47.572273 261.583362 47.572273 239.305562 18.7416402 239.305562"></polygon>
                            <polygon id="Fill-38" fill="#CCE3FF" points="47.572273 261.583362 68.8261868 261.583362 68.8261868 239.305562 47.572273 239.305562"></polygon>
                            <path d="M41.9121767,250.444425 L24.6677264,250.444425 C24.6677264,248.494179 26.1020763,246.913245 27.8719059,246.913245 L38.7076647,246.913245 C40.4774943,246.913245 41.9121767,248.494179 41.9121767,250.444425" id="Fill-39" fill="#CCE3FF"></path>
                            <polygon id="Fill-40" fill="#ECF6FF" points="59.7399758 261.583362 88.5706085 261.583362 88.5706085 239.305562 59.7399758 239.305562"></polygon>
                            <polygon id="Fill-41" fill="#CCE3FF" points="88.5702761 261.583362 109.82419 261.583362 109.82419 239.305562 88.5702761 239.305562"></polygon>
                            <path d="M82.9103792,250.444425 L65.6659289,250.444425 C65.6659289,248.494179 67.1002788,246.913245 68.8701084,246.913245 L79.7058672,246.913245 C81.4756968,246.913245 82.9103792,248.494179 82.9103792,250.444425" id="Fill-42" fill="#CCE3FF"></path>
                            <polygon id="Fill-43" fill="#ECF6FF" points="26.5284912 77.2676768 55.359124 77.2676768 55.359124 54.9902429 26.5284912 54.9902429"></polygon>
                            <polygon id="Fill-44" fill="#CCE3FF" points="55.359124 77.2676768 76.6130378 77.2676768 76.6130378 54.9902429 55.359124 54.9902429"></polygon>
                            <path d="M49.6989944,66.1291797 L32.4545441,66.1291797 L32.4545441,66.1291797 C32.4545441,64.1789333 33.888894,62.5979991 35.6587236,62.5979991 L46.4944824,62.5979991 C48.264312,62.5979991 49.6989944,64.1789333 49.6989944,66.1291797 Z" id="Fill-45" fill="#CCE3FF"></path>
                            <path d="M87.685993,116.511741 L90.3405711,88.0039974 L98.6421123,88.0039974 L101.297023,116.511741 C101.574982,119.498846 99.4477288,122.096121 96.722331,122.096121 L92.2603523,122.096121 C89.535287,122.096121 87.4077012,119.498846 87.685993,116.511741" id="Fill-46" fill="#CCE3FF"></path>
                            <polygon id="Fill-47" fill="#DCEEFF" points="23.2933904 215.087408 29.9843635 215.087408 29.9843635 186.92223 23.2933904 186.92223"></polygon>
                            <polygon id="Fill-48" fill="#ECF6FF" points="16.6020849 215.087408 23.293058 215.087408 23.293058 186.92223 16.6020849 186.92223"></polygon>
                            <polygon id="Fill-49" fill="#ECF6FF" points="29.9843635 215.087408 36.6753365 215.087408 36.6753365 186.92223 29.9843635 186.92223"></polygon>
                            <path d="M54.3038095,215.087591 L36.6753365,215.087591 L36.6753365,186.922413 L54.3038095,186.922413 C55.2454134,186.922413 56.008804,187.763624 56.008804,188.801215 L56.008804,213.208422 C56.008804,214.24638 55.2454134,215.087591 54.3038095,215.087591" id="Fill-50" fill="#DCEEFF"></path>
                            <polygon id="Fill-51" fill="#CCE3FF" points="39.540379 193.814224 53.1440941 193.814224 53.1440941 191.025698 39.540379 191.025698"></polygon>
                            <polygon id="Fill-52" fill="#CCE3FF" points="42.5713326 198.116637 50.112808 198.116637 50.112808 195.328111 42.5713326 195.328111"></polygon>
                            <path d="M76.2103292,170.906835 L76.2103292,170.906835 C68.0604022,170.906835 61.4538809,163.626477 61.4538809,154.646111 L61.4538809,149.97805 L90.9667775,149.97805 L90.9667775,154.646111 C90.9667775,163.626477 84.3602562,170.906835 76.2103292,170.906835" id="Fill-53" fill="#ECF6FF"></path>
                            <path d="M91.6518342,109.13224 C91.6518342,114.610004 89.0258501,119.41619 85.0865413,122.096268 L70.6256742,122.096268 C66.6863655,119.41619 64.0603813,114.610004 64.0603813,109.13224 C64.0603813,106.583327 64.6295995,104.183165 65.6327134,102.075375 L90.0795021,102.075375 C91.0826161,104.183165 91.6518342,106.583327 91.6518342,109.13224" id="Fill-54" fill="#DCEEFF"></path>
                        </g>
                        <g id="Group-14" transform="translate(98.562714, 319.220928) scale(-1, 1) translate(-98.562714, -319.220928) translate(2.854802, 240.757933)">
                            <polygon id="Fill-1" fill="#B6D4FF" points="159.864283 124.426854 172.413681 156.925953 178.104532 156.925953 170.554745 122.83383"></polygon>
                            <polygon id="Fill-2" fill="#B6D4FF" points="95.7563226 124.426854 108.305388 156.925953 113.99624 156.925953 106.446452 122.83383"></polygon>
                            <polygon id="Fill-3" fill="#B6D4FF" points="0 156.92599 5.69085145 156.92599 18.239917 124.426891 7.54978756 122.833866"></polygon>
                            <polygon id="Fill-4" fill="#B6D4FF" points="64.1079603 156.92599 69.7988117 156.92599 82.3482098 124.426891 71.6577478 122.833866"></polygon>
                            <path d="M6.997892,48.3698838 L6.997892,127.061207 L81.2133643,127.235971 L93.4179731,49.3942852 L6.997892,48.3698838 Z M12.6501749,54.6657759 L86.7180229,55.5436249 L76.4554721,120.996502 L12.6501749,120.846286 L12.6501749,54.6657759 Z" id="Fill-5" fill="#B6D4FF"></path>
                            <polygon id="Fill-6" fill="#CCE3FF" points="104.38696 0 84.4380582 127.236081 171.466259 127.236081 191.415825 0"></polygon>
                            <polygon id="Fill-7" fill="#DCEEFF" points="80.9847129 0 61.035479 127.236081 147.008365 127.236081 166.957599 0"></polygon>
                            <path d="M59.6685242,127.236081 L162.006099,127.236081 C167.230803,127.236081 171.466358,122.568753 171.466358,116.811075 L171.466358,92.7852702 C171.466358,87.0275919 167.230803,82.3602636 162.006099,82.3602636 L59.6685242,82.3602636 C54.4434874,82.3602636 50.2079326,87.0275919 50.2079326,92.7852702 L50.2079326,116.811075 C50.2079326,122.568753 54.4434874,127.236081 59.6685242,127.236081" id="Fill-8" fill="#CCE3FF"></path>
                            <polygon id="Fill-10" fill="#DCEEFF" points="6.61350352 127.235935 97.2508527 127.235935 97.2508527 82.360117 6.61350352 82.360117"></polygon>
                            <path d="M97.2509524,48.3698838 L97.2509524,127.061207 L171.466425,127.235971 L183.671366,49.3942852 L97.2509524,48.3698838 Z M102.903235,54.6657759 L176.971083,55.5436249 L166.708532,120.996502 L102.903235,120.846286 L102.903235,54.6657759 Z" id="Fill-12" fill="#B6D4FF"></path>
                        </g>
                        <g id="Group-21" transform="translate(81.924023, 83.933174) scale(-1, 1) translate(-81.924023, -83.933174) translate(0.000000, 56.834788)">
                            <path d="M153.115224,13.0034866 C151.958501,23.7018135 143.694864,32.00181 133.673366,32.00181 C123.651868,32.00181 115.388231,23.7018135 114.231508,13.0034866 L153.115224,13.0034866 Z" id="Fill-1" fill="#ECF6FF"></path>
                            <g id="Group-5" transform="translate(38.959856, 0.000000)" fill="#ECF6FF">
                                <path d="M38.8837167,0 C37.7269936,10.6983269 29.463356,18.9983234 19.4415259,18.9983234 C9.42036072,18.9983234 1.15672308,10.6983269 0,0 L38.8837167,0 Z" id="Fill-3"></path>
                            </g>
                            <path d="M77.843573,13.0034866 C76.6868499,23.7018135 68.4232123,32.00181 58.4013822,32.00181 C48.380217,32.00181 40.1165794,23.7018135 38.9598563,13.0034866 L77.843573,13.0034866 Z" id="Fill-6" fill="#ECF6FF"></path>
                            <polygon id="Fill-8" fill="#DCEEFF" points="90.0439592 16.0164579 105.918562 16.0164579 101.644106 31.5107128 94.3184151 31.5107128"></polygon>
                            <polygon id="Fill-10" fill="#DCEEFF" points="13.111501 16.0164579 28.9861038 16.0164579 24.711648 31.5107128 17.3859568 31.5107128"></polygon>
                            <polygon id="Fill-12" fill="#DCEEFF" points="90.0439592 5.89858848 105.918562 5.89858848 101.644106 21.3932098 94.3184151 21.3932098"></polygon>
                            <polygon id="Fill-14" fill="#DCEEFF" points="0 35.2012326 140.701282 35.2012326 140.701282 28.6884429 0 28.6884429"></polygon>
                            <polygon id="Fill-16" fill="#CCE3FF" points="140.701282 35.2012326 163.848045 35.2012326 163.848045 28.6884429 140.701282 28.6884429"></polygon>
                            <polygon id="Fill-17" fill="#B6D4FF" points="34.2929325 35.2013791 45.280638 54.1967715 45.280638 35.2013791"></polygon>
                            <polygon id="Fill-18" fill="#CCE3FF" points="28.2123728 35.2013791 39.2000783 54.1967715 45.2806048 54.1967715 34.2928993 35.2013791"></polygon>
                            <polygon id="Fill-19" fill="#B6D4FF" points="114.88019 35.2013791 125.867896 54.1967715 125.867896 35.2013791"></polygon>
                            <polygon id="Fill-20" fill="#CCE3FF" points="108.79963 35.2013791 119.787336 54.1967715 125.867862 54.1967715 114.880157 35.2013791"></polygon>
                        </g>
                        <g id="Group-8" transform="translate(273.444149, 0.000000)">
                            <polygon id="Fill-1" fill="#DCEEFF" points="4.76745129 75.7676028 85.8436314 75.7676028 85.8436314 0 4.76745129 0"></polygon>
                            <polygon id="Stroke-2" stroke="#DCEEFF" stroke-width="5" points="4.76745129 75.7676028 85.8436314 75.7676028 85.8436314 0 4.76745129 0"></polygon>
                            <polygon id="Fill-4" fill="#FFFFFF" points="2.40559599e-13 75.8692736 81.0761801 75.8692736 81.0761801 0.101670744 2.40559599e-13 0.101670744"></polygon>
                            <polygon id="Stroke-5" stroke="#DCEEFF" stroke-width="5" points="2.40559599e-13 75.8692736 81.0761801 75.8692736 81.0761801 0.101670744 2.40559599e-13 0.101670744"></polygon>
                            <polygon id="Fill-7" fill="#DCEEFF" points="13.8090259 60.2161008 66.1121767 60.2161008 66.1121767 15.551502 13.8090259 15.551502"></polygon>
                        </g>
                        <g id="Group-8" transform="translate(428.881929, 28.394074)">
                            <polygon id="Fill-1" fill="#DCEEFF" points="3.06096057 48.201092 55.1180707 48.201092 55.1180707 0 3.06096057 0"></polygon>
                            <polygon id="Stroke-2" stroke="#DCEEFF" stroke-width="5" points="3.06096057 48.201092 55.1180707 48.201092 55.1180707 0 3.06096057 0"></polygon>
                            <polygon id="Fill-4" fill="#FFFFFF" points="0 48.2661247 52.0566946 48.2661247 52.0566946 0.0650326378 0 0.0650326378"></polygon>
                            <polygon id="Stroke-5" stroke="#DCEEFF" stroke-width="5" points="0 48.2661247 52.0566946 48.2661247 52.0566946 0.0650326378 0 0.0650326378"></polygon>
                            <polygon id="Fill-7" fill="#DCEEFF" points="8.86618763 38.3078875 42.4486448 38.3078875 42.4486448 9.8936625 8.86618763 9.8936625"></polygon>
                        </g>
                    </g>
                    <g id="Person-/-Man-/-5" transform="translate(70.000000, 115.000000)">
                        <g id="Group-23" transform="translate(76.441017, 0.000000)">
                            <g id="Face-color" transform="translate(0.000000, 11.491697)" fill="#E576C6" fill-rule="nonzero">
                                <path d="M29.2221243,52.7923764 L28.8676307,39.3143364 C28.8676307,39.3143364 43.7395857,40.6184245 46.9207087,38.7983658 C46.9207087,38.7983658 50.808955,16.7364131 46.1714636,4.51895058 L46.0775284,4.04320676 L14.6942256,0 L13.2685182,20.3518199 C12.2113744,16.9181727 3.15286986,12.5052075 0.872331963,17.4227321 C-4.07007601,28.0783264 13.6016698,35.2530687 13.6016698,35.2530687 L11.8072092,52.9545152" id="Face"></path>
                            </g>
                            <polygon id="Fill-4" fill="#000000" opacity="0.403343564" points="28.8677425 50.8058689 18.8394145 48.4378222 28.8196567 55.8625455"></polygon>
                            <polygon id="Fill-6" fill="#405FD3" points="37.1397806 28.7807361 40.6049457 38.1108975 36.4520407 38.1691854"></polygon>
                            <path d="M33.1886872,31.4320125 C33.3951955,32.6884852 32.637377,33.8911853 31.4967353,34.1181795 C30.3557208,34.3455842 29.2635378,33.5114933 29.0574022,32.2550206 C28.8508938,30.9985479 29.6087123,29.7962583 30.749354,29.5688536 C31.8903685,29.3414488 32.9825516,30.1755398 33.1886872,31.4320125" id="Fill-8" fill="#0D0B6D"></path>
                            <path d="M44.0878914,31.4320125 C44.2943998,32.6884852 43.5365813,33.8911853 42.3959396,34.1181795 C41.2549251,34.3455842 40.162742,33.5114933 39.9566065,32.2550206 C39.7500981,30.9985479 40.5079166,29.7962583 41.6485583,29.5688536 C42.7895728,29.3414488 43.8817559,30.1755398 44.0878914,31.4320125" id="Fill-10" fill="#0D0B6D"></path>
                            <path d="M16.2495838,36.860335 C16.1917117,36.7038318 16.1273541,36.5419207 16.056286,36.3744531 C13.6603829,30.7286525 9.94402153,28.3562515 7.50294769,27.3717461 C6.16901271,25.1986019 5.11737047,22.7682988 4.76818253,20.2086452 C3.66108911,12.1099173 5.59682519,4.70777039 9.91560781,2.58642089 C14.2873222,0.438800815 24.6425596,1.5154842 36.2700226,1.5154842 C50.2309553,1.5154842 50.9999565,0 50.9999565,0 C50.9999565,0 63.3065859,19.1216999 40.5854504,18.5659129 C28.6787911,18.2744736 21.9035285,18.6032664 21.9035285,18.6032664 L16.2495838,36.860335 Z" id="Hair" fill="#19141E" fill-rule="nonzero"></path>
                            <g id="Group-22" transform="translate(30.852198, 39.005059)">
                                <path d="M3.60964642,5.10829734 C3.60964642,5.10829734 5.74779048,7.04000607 8.40183263,5.80200489" id="Fill-19" fill="#FFFFFF"></path>
                                <path d="M3.60964642,5.10829734 C3.60964642,5.10829734 5.74779048,7.04000607 8.40183263,5.80200489" id="Stroke-21" stroke="#252535" stroke-width="4"></path>
                                <path d="M0,3.09235855 C0,3.09235855 1.15629757,-0.236206282 6.63286881,0.0133642466 C12.10944,0.262524298 12.7886064,4.38700567 12.7886064,4.38700567 L0,3.09235855 Z" id="Fill-17" fill="#19141E"></path>
                            </g>
                        </g>
                        <g id="Group-18" transform="translate(0.000000, 142.239234)">
                            <g id="Shoes" transform="translate(0.000000, 157.794768)" fill="#0D0B6D" fill-rule="nonzero">
                                <path d="M149.8753,52.8771089 L152.769864,63.2077813 C152.769864,63.2077813 175.373029,52.9381448 187,56.834806 L147.81971,81.9659987 L137.619619,53.5939367 L149.8753,52.8771089 Z M31.8880871,13.2291898 L18.6805974,25.4285707 C18.6805974,25.4285707 20.1969959,34.0786904 20.6466693,42.1863706 C21.2970302,53.9222457 20.143285,64.4268474 20.143285,64.4268474 L0,20.8733642 L28.0433798,0 L31.8880871,13.2291898 Z"></path>
                            </g>
                            <g id="Leg-skin" transform="translate(11.707246, 157.773199)" fill="#E576C6" fill-rule="nonzero">
                                <path d="M125.727965,53.5583707 L137.428633,50.0550011 L141.06266,63.2291209 L131.033695,67.8605076 L125.727965,53.5583707 Z M16.1516011,0 L16.8498439,16.3612959 L6.97326808,25.4501398 L0,12.2599579 L16.1516011,0 Z" id="Skin"></path>
                            </g>
                            <g id="Pants" transform="translate(11.419830, 0.000000)" fill="#19141E" fill-rule="nonzero">
                                <path d="M67.1842278,50.1999057 C63.9540757,38.4142898 61.672496,29.6374059 60.9226219,25.804607 C57.5887936,8.76365562 57.5958718,0.619262107 57.5958717,0 L69.1540065,0 L112.697389,0 C112.460383,4.55823188 113.146579,16.6462171 111.595692,33.3832521 L145.405622,200.368995 L148.817652,199.71024 L151.785912,212.68932 L114.804442,220.861248 L110.298964,207.146984 L112.508254,206.72044 C107.572352,190.270725 96.7926544,153.754305 86.3336235,117.63034 C85.0284527,120.036843 83.6587033,122.451744 82.2211927,124.872134 C62.7316854,157.686357 43.2792517,176.672267 32.6230168,185.591824 L34.1980758,188.085973 L23.5083406,195.615418 L-1.20343557e-13,158.584517 L10.3716329,150.356142 L12.120572,153.125635 C24.7713763,140.241669 50.0428054,109.946488 64.9412446,61.2745491 C65.939773,58.0142043 66.6603128,54.260432 67.1842278,50.1999057 L67.1842278,50.1999057 Z"></path>
                            </g>
                            <g id="Overlay" transform="translate(69.015702, 0.000184)" fill="#FFFFFF" fill-opacity="0.1">
                                <path d="M47.2406853,0 L87.809,200.369 L91.2217799,199.710056 L94.1900405,212.689136 L57.2085698,220.861065 L52.7030925,207.1468 L54.9126894,206.721414 C44.3265402,171.441225 6.85660709,43.8464279 3.32675024,25.8044235 C0.212734731,9.88705127 0.0135905468,1.73174051 0.000867338092,0.220992572 L0,0 L0,0 L47.2406853,0 Z"></path>
                            </g>
                        </g>
                        <g id="Group-36" transform="translate(43.205866, 51.916746)">
                            <g id="Skin-color" transform="translate(0.000000, 9.094596)" fill="#E576C6" fill-rule="nonzero">
                                <path d="M118.490484,30.2343358 C113.905503,40.201965 97.8104734,72.9221887 86.3362061,67.7034058 C77.7453011,63.7955737 67.4606431,31.3984288 67.4606431,31.3984288 L84.1784054,20.3827868 L91.69041,42.6463641 L107.029044,24.1968118 C106.508209,20.5409472 106.091014,15.7619799 107.12932,14.0772577 C108.897022,11.2097155 117.840636,2.37479564 117.840636,2.37479564 L119.469019,17.3439987 L119.753456,16.0820846 C119.753169,16.0118093 119.768459,15.9357463 119.800687,15.8535242 C119.803784,15.8456304 119.806999,15.8377124 119.810328,15.8297705 L120.468735,12.9087332 C120.192336,12.7542925 120.079236,12.53419 120.198721,12.2295198 C120.295704,11.9822262 120.507215,11.7111895 120.802875,11.4263096 L123.050807,1.45330449 C123.050807,1.45330449 123.788496,1.81660119 124.870036,2.3609346 C126.609631,1.96375299 132.909207,6.70529668 133.004796,6.7773424 L133.00602,6.77821737 C134.288902,7.69550164 131.237903,22.8562991 128.759797,25.672627 C126.99679,27.6762463 121.510934,29.4038481 118.490484,30.2343358 L118.490484,30.2343358 Z M16.071548,97.838178 L17.0956059,99.9904401 C17.0956059,99.9904401 18.0224549,101.749102 18.9929251,104.818757 C19.9629799,107.887956 19.5600021,109.765965 21.6588101,114.586966 C24.0413644,120.059577 19.7797704,117.802948 18.2517783,115.414168 C17.0590471,113.54942 17.1944809,111.029403 15.6482094,109.899945 C15.1301544,110.8154 13.9461475,112.124108 13.2855963,120.020252 C13.1671956,121.436418 13.7471513,126.030156 13.7471513,126.030156 C13.7596145,127.406539 13.9191439,130.276825 12.5037363,130.71489 C12.1531041,130.82372 11.6965344,130.394344 11.6965344,130.394344 C11.6965344,130.394344 11.8336299,132.190501 10.3874797,132.548087 C9.81874093,132.688469 8.68915679,128.810359 8.68915679,128.810359 C8.68915679,128.810359 8.5171642,130.779823 7.43701754,130.998855 C7.13166838,131.060587 3.52647117,119.82454 3.52647117,119.82454 L3.74333138,122.36239 L4.22191944,124.961515 C4.22191944,124.961515 4.18328343,126.360762 3.168361,126.608145 C2.76538321,126.706459 1.99183202,124.373008 1.26688743,121.627557 C0.139380489,117.355738 0.162229745,114.1457 0.494167124,110.953496 C0.894652272,107.095964 0.716428073,105.800059 2.26726942,101.069598 C2.45272948,100.503857 2.70165594,99.8542341 2.97966185,99.1862696 C2.12874992,91.0537119 -0.269073519,67.248625 0.0248018539,59.9405105 C0.380834812,51.0763254 8.86330966,31.3986117 8.86330966,31.3986117 L26.0845865,42.0580401 L16.5925899,61.206692 L16.071548,97.838178 L16.071548,97.838178 Z M57.2717027,9.66217556 C47.2969637,9.0128517 43.0885461,2.14922419 42.1288773,0.292706695 C48.4577059,-0.191085304 49.119088,-0.120208405 57.5492173,0.846461052 C60.9682969,1.23879899 63.3662225,2.04405202 65.6885379,2.74824831 C66.1912215,4.63677474 66.9057801,10.2840632 57.2717027,9.66217556 Z" id="Mask"></path>
                            </g>
                            <g id="T-Shirt" transform="translate(7.169390, 9.370984)" fill="#5E93D1" fill-rule="nonzero">
                                <path d="M35.1215012,0.00700708396 L35.0969542,0.0329272181 C35.0756415,0.0574242252 35.0513305,0.0972523993 35.0654093,0.157795729 C35.0873833,0.25229076 35.1643251,0.39311523 35.2536053,0.552883538 C35.3428856,0.712651845 35.3428856,0.660893556 35.7805643,1.37560171 C36.218243,2.09030986 36.8669825,2.80274593 37.8452433,3.90778009 C38.6566496,4.82433696 39.7774851,5.72172979 40.8771717,6.40214235 C42.1291705,7.17679553 43.3579835,7.69408203 44.1464369,8.0613102 C44.8580244,8.39273745 45.457977,8.56658497 46.0378803,8.71908284 C47.6759206,9.14984024 48.9511956,9.28325458 51.5526672,9.43335716 C51.8683814,9.45157359 53.6964277,9.30174477 54.0179283,9.23100009 C54.4765039,9.13009272 54.8873523,9.03892646 55.4058928,8.8823538 C55.9244334,8.72578113 57.2130729,8.05997336 58.0661455,6.88715478 C58.4279829,6.38969469 58.7717081,4.75358504 58.6658776,3.54822183 C58.5600472,2.34285862 58.0852862,2.34029999 58.5191474,2.47185983 C66.1507991,4.77192954 73.3631461,9.51391422 77.579457,17.9231154 C77.9193801,18.6006034 78.2299869,19.2531535 78.5130665,19.8816784 L78.5726103,19.8686177 L85.3667329,37.162124 L75.669,43.42 L73.6452305,81.1773188 L18.3957286,81.1773188 L17.4692951,43.9417966 L0,29.4783364 C0,29.4783364 0.741437598,27.8321632 2.16003991,25.3309678 L2.45277019,24.8195628 C5.87227551,18.8997497 12.748888,8.85800567 22.3341095,3.90778009 C26.8914976,1.55283794 31.0709589,0.44157961 34.9594869,0.0163182123 C35.1044012,0.000476197704 35.1314607,-0.00613271275 35.1215012,0.00700708396 Z"></path>
                            </g>
                            <polyline id="Stroke-16" stroke="#000000" stroke-width="5" opacity="0.200520833" points="24.6378962 53.3108146 29.0694056 56.6310543 39.7217289 42.9367228"></polyline>
                            <path d="M125.809393,29.103963 L125.037695,33.2847066 L112.53749,33.2847066 L118.433844,0 L130.934049,0 C130.610032,1.82906843 129.846875,6.13705864 128.64458,12.9239706 L126.186597,11.6661782 L125.421033,11.4319062 L124.818384,11.4692542 L124.557151,11.6661782 L124.557151,12.4748857 L127.229206,16.7178095 L125.185174,17.7010635 L122.040199,19.5226076 L121.131523,20.2172783 L120.779461,20.5772559 L120.491981,20.8615985 L120.308755,21.1057514 L120.198721,21.3241155 L120.151437,21.607677 L120.198721,21.7331584 L120.253389,21.8296557 L120.332907,21.9168034 L121.363738,22.318903 L123.71525,21.607677 L126.039326,21.607677 L122.937211,22.318903 L120.893172,23.6691892 L120.198721,24.3920469 L119.806212,24.9232218 L119.806212,25.4091856 L120.491981,25.7499031 L124.818384,25.2015849 L123.385818,26.0620513 L122.436471,26.7120016 L121.566235,27.2076755 L120.893172,28.1664249 L120.893172,28.6395479 L121.131523,28.9174155 L121.73577,29.2722012 L122.657174,29.2722012 L124.513428,29.2722012 L125.809393,29.103963 Z" id="Phone" fill="#5E93D1" fill-rule="nonzero"></path>
                            <polygon id="Fill-23" fill="#020101" points="112.535911 33.2847066 110.46743 33.2847066 116.363785 0 118.43185 0"></polygon>
                            <path d="M120.584666,3.86466584 C120.411842,4.83682254 119.899603,5.54513427 119.440541,5.44590661 C118.981894,5.34713622 118.749663,4.47877988 118.922486,3.50662318 C119.09531,2.53400921 119.607548,1.82615475 120.066611,1.92492514 C120.525673,2.0241528 120.757489,2.89250914 120.584666,3.86466584" id="Fill-34" fill="#020101"></path>
                        </g>
                    </g>
                    <g id="Person-/-Woman-/-4" transform="translate(400.000000, 293.000000) scale(-1, 1) translate(-400.000000, -293.000000) translate(339.000000, 89.000000)">
                        <g id="Group-21" transform="translate(5.787759, 0.000000)">
                            <g id="Hair-color" transform="translate(0.000000, 0.000000)">
                                <mask id="mask-2" fill="white">
                                    <use xlink:href="#path-1"></use>
                                </mask>
                                <use id="Hair" fill="#F6B852" fill-rule="nonzero" xlink:href="#path-1"></use>
                            </g>
                            <path d="M52.1568952,82.0717569 C52.1568952,82.0717569 46.8109195,82.246572 44.5325441,80.8686445 L51.8728735,85.9703168 L52.1568952,82.0717569 Z" id="Fill-4" fill="#CF3E83"></path>
                            <g id="Face-color" transform="translate(31.783021, 44.662431)" fill="#E576C6" fill-rule="nonzero">
                                <path d="M18.5867895,2.40102273e-13 C23.793117,4.95755775 31.4989086,9.56746828 40.5448449,12.7017699 C39.9688024,19.4860691 38.0566356,31.1791166 32.2883592,35.4264104 C29.5634867,37.4322079 24.6011677,37.6793287 20.3739153,37.4093263 L19.4044378,50.7003083 L6.83926573,45.2531245 C6.83926573,45.2531245 9.97549431,29.0996595 8.29616917,26.1310061 C6.04094548,22.1317674 0.0070335136,20.843078 0,15.3162664 C-0.00247522057,13.6793197 0.861992742,10.8452098 4.05403346,10.8397183 C8.33875176,10.8328538 7.72812566,16.5148024 7.72812566,16.5148024 C11.669557,18.2119802 15.6871429,6.58646006 18.5867895,2.40102273e-13 L18.5867895,2.40102273e-13 Z" id="Face"></path>
                            </g>
                            <polygon id="Fill-9" fill="#2437A8" points="63.7775606 61.1666159 66.8368925 69.3765191 63.2876541 69.2978065"></polygon>
                            <path d="M60.5206124,61.5227903 C60.4441292,63.1629404 59.5730464,64.4406466 58.5742159,64.3770359 C57.5753854,64.3134251 56.8275028,62.9322943 56.9035727,61.2921442 C56.980056,59.6519941 57.8515521,58.3738302 58.8499692,58.4374409 C59.8487997,58.5015093 60.5970957,59.8826402 60.5206124,61.5227903" id="Fill-11" fill="#1D1D23"></path>
                            <path d="M69.8997798,61.2607049 C69.8232965,62.900855 68.9522137,64.1785612 67.9533832,64.1149505 C66.9545527,64.0513398 66.2066701,62.6702089 66.2831534,61.0300588 C66.3596367,59.3899087 67.2307194,58.1117448 68.2295499,58.1758132 C69.2283805,58.2394239 69.9762631,59.6205548 69.8997798,61.2607049" id="Fill-13" fill="#1D1D23"></path>
                            <path d="M62.4169848,73.2304142 C62.4169848,73.2304142 60.1042953,74.0564385 57.7870581,71.204481" id="Stroke-15" stroke="#24242B" stroke-width="3"></path>
                            <path d="M52.1480066,82.0715281 C52.1480066,82.0715281 46.8020309,82.2463432 44.5236555,80.8688734 L51.8639849,85.970088 L52.1480066,82.0715281 Z" id="Fill-17" fill="#000000" opacity="0.399018787"></path>
                        </g>
                        <g id="Group-39" transform="translate(3.700271, 89.026945)">
                            <g id="Skin-color" transform="translate(0.000000, 0.001995)" fill="#E576C6" fill-rule="nonzero">
                                <path d="M98.01517,35.382922 C97.7421574,32.4231077 97.6354204,28.8818256 98.485133,27.6135105 C100.044152,25.2859984 107.752428,18.2499191 107.752428,18.2499191 L108.163361,24.1215288 L109.988014,17.2284406 C109.988014,17.2284406 112.008651,17.8913341 113.964732,19.0242171 C115.709908,20.0349525 117.365647,21.491106 118.089042,22.0601105 C119.125494,22.8756092 116.112466,35.4229406 113.964732,37.6808928 C112.490026,39.2306503 108.141884,40.4323911 105.561576,41.0333775 C100.633331,49.8432094 87.4988155,71.8551772 80.2426265,70.039169 C72.7042674,68.1528134 65.7103867,38.9843179 65.7103867,38.9843179 L78.425218,32.1280877 L83.9613684,51.015899 L98.01517,35.382922 L98.01517,35.382922 Z M11.6151478,99.3058072 L14.7098408,108.06671 C14.7098408,108.06671 15.179962,110.322155 15.4426934,112.987774 C15.7050421,115.65343 15.8058284,117.274947 17.4004189,121.27464 C18.5116989,124.061765 14.9154718,123.229316 13.8956291,121.672253 C12.8441726,120.066422 12.3123628,113.484153 10.5812683,114.786601 C8.85017393,116.089049 8.32856157,122.713776 8.71581549,128.969513 C8.77650765,129.95204 8.16019016,130.754167 7.71949735,131.0369 C7.00465153,131.494853 5.96151845,127.623613 5.96151845,127.623613 C5.96151845,127.623613 5.58632833,128.983883 4.44802282,128.415786 C4.04504723,128.214758 2.84447941,125.580859 2.84447941,125.580859 C2.84447941,125.580859 1.91489459,124.282842 1.425978,122.833489 C0.56291167,120.274657 -0.141707638,115.525443 0.0244322415,114.129951 C0.416819383,110.841117 1.29975782,105.290012 2.46040804,102.214819 C1.77521128,94.3128337 -0.851476005,62.5877653 0.597523438,56.5612309 C2.25589039,49.6654702 5.50540539,40.3210073 5.50540539,40.3210073 L17.9743632,48.4387525 L12.6289892,61.0705199 L11.6151478,99.3058072 L11.6151478,99.3058072 Z M54.710683,0.812752956 C54.710683,0.812752956 58.0403936,3.41758957 60.5275478,8.07535961 C63.9312612,14.447416 62.1518876,19.9449392 56.9150556,19.9541309 C51.3086233,19.9646174 44.8741042,17.8521919 42.1616344,8.45244769 C40.7894827,3.69765985 39.4934009,0 39.4934009,0 L54.710683,0.812752956 Z" id="Skin"></path>
                            </g>
                            <path d="M114.203767,19.2040649 C113.055497,18.475381 111.962774,17.930035 111.427223,18.0683127 C110.490237,18.3102399 112.205173,21.0303988 113.456057,22.821493 L113.441927,22.8898572 C111.422842,23.7890955 108.776909,25.1224999 108.35152,26.0986414 C108.054486,26.7802434 109.214728,27.0029366 110.652196,27.0330435 C109.329425,27.7352422 108.175132,28.4942876 107.906635,29.1107698 C107.562647,29.9001189 109.17308,30.0740037 110.905134,30.046064 C109.375504,30.8186292 107.942354,31.6966175 107.638943,32.3928547 C107.25226,33.2806986 109.338048,33.3899004 111.288314,33.3090665 L110.787037,35.7342487 C110.633657,36.4778994 110.021791,36.9941073 109.333028,36.9607003 L101.84924,36.5982564 C100.958727,36.555239 100.321228,35.6294512 100.520085,34.6675105 L105.822651,9.0136224 C105.976444,8.26997175 106.587897,7.75376379 107.276247,7.78717087 L114.760448,8.14915712 C115.650961,8.19263208 116.288047,9.11841994 116.089603,10.0803607 L114.203767,19.2040649 L114.203767,19.2040649 Z" id="Path" fill="#020101"></path>
                            <g id="Phone-color" transform="translate(102.207097, 7.868784)" fill="#5E93D1" fill-rule="nonzero">
                                <path d="M13.5223109,12.375726 C11.9344404,11.2293461 9.9946318,9.99955343 9.22012577,10.1995288 C8.27484425,10.4435979 10.0286498,13.209975 11.2820729,15.0000606 C9.25725622,15.8994387 6.57313816,17.2460838 6.14442235,18.2298575 C5.84738906,18.9114595 7.00763113,19.1341527 8.44509848,19.1642596 C7.12232769,19.8664582 5.96803433,20.6255037 5.69953762,21.2419858 C5.3555495,22.031335 6.96598293,22.2052197 8.69803667,22.1772801 C7.16840671,22.9498452 5.73525725,23.8278335 5.43184608,24.5240708 C4.91980386,25.6997459 8.74319515,25.5100858 10.8464035,25.3218027 L10.30346,27.9485706 C10.15008,28.6922213 9.5382136,29.2084292 8.84945051,29.1750222 L1.3656633,28.8130359 C0.475149669,28.7700186 -0.162348943,27.8437731 0.0365076279,26.8818324 L5.33907391,1.22794429 C5.49286735,0.484293645 6.1043203,-0.0314566829 6.79266997,0.00149276127 L14.2768706,0.363479016 C15.1673842,0.406953977 15.8044694,1.33319946 15.6060263,2.29468255 L13.5223109,12.375726 Z" id="Phone"></path>
                            </g>
                            <path d="M109.475948,11.2691949 C109.301483,12.1098634 108.853746,12.707072 108.475464,12.6022745 C108.097595,12.497477 107.932226,11.7309448 108.106277,10.8902763 C108.280741,10.0491502 108.728892,9.45239916 109.106761,9.5571967 C109.485043,9.66199424 109.650413,10.4285264 109.475948,11.2691949" id="Fill-20" fill="#020101"></path>
                            <path d="M108.600648,15.6198487 C108.426184,16.4605171 107.978446,17.0577258 107.600164,16.9529283 C107.221882,16.8481307 107.056926,16.0815985 107.230977,15.2409301 C107.405442,14.399804 107.853179,13.8030529 108.231461,13.9078505 C108.609744,14.012648 108.775113,14.7791802 108.600648,15.6198487" id="Fill-22" fill="#020101"></path>
                            <g id="T-shirt-color" transform="translate(2.078971, 0.000000)" fill="#5E93D1" fill-rule="nonzero">
                                <path d="M42.4297572,0.269863134 L37.4144298,0.00199518333 C37.4144298,0.00199518333 38.7105116,3.69965503 40.0826633,8.45444287 C42.795133,17.8541871 49.2296521,19.9666126 54.8360844,19.956087 C60.0729164,19.9469344 61.85229,14.4494112 58.4485766,8.07735479 C56.2579294,3.97486237 53.4136423,1.46499798 52.7666111,0.924875165 C59.379167,1.41973097 63.4967933,2.33872891 67.3098486,6.29762717 C74.5699739,13.8352702 80.4488521,27.730783 82.8661377,41.4588028 L69.598973,48.0125387 L64.8735456,68.2247346 L30.1521961,67.6389667 C30.1521961,67.6389667 30.4560621,63.9367305 29.7073527,58.5870222 C28.7320873,51.5898416 25.2113751,46.36827 25.2113751,46.36827 L21.7191891,52.2442542 L0,38.0714169 C7.11046604,23.7187305 17.0284892,8.91985377 23.6411937,4.21082904 C28.3127975,0.882759488 32.5900583,0.0474037122 36.7694766,0.00199518333 C38.6700587,-0.0186542541 40.5782569,0.124468908 42.4297572,0.269863134 Z" id="T-Shirt"></path>
                            </g>
                            <path d="M67.1077572,68.5761038 C68.4340189,49.9308371 77.2006584,45.5307134 70.5858868,24.6201724" id="Stroke-31" stroke="#000000" stroke-width="3" opacity="0.20296224"></path>
                            <path d="M54.710683,0.814748139 C54.710683,0.814748139 58.0403936,3.41958475 60.5275478,8.07735479 C63.9312612,14.4494112 62.1518876,19.9469344 56.9150556,19.9561261 C51.3086233,19.9666126 44.8741042,17.8541871 42.1616344,8.45444287 C40.7894827,3.69965503 39.4934009,0.00199518333 39.4934009,0.00199518333" id="Stroke-35" stroke="#000000" stroke-width="3" opacity="0.202055432"></path>
                            <line x1="36.2079679" y1="33.3153019" x2="28.1515895" y2="46.8268622" id="Stroke-37" stroke="#000000" stroke-width="3" opacity="0.20296224"></line>
                        </g>
                        <g id="Group-19" transform="translate(0.000000, 156.510042)">
                            <g id="Shoes" transform="translate(0.000000, 224.019681)" fill="#0D0B6D" fill-rule="nonzero">
                                <path d="M12.4376581,2.09324473 L22.0867935,1.86157458 L23.1550215,13.7579931 L24.2038932,27.4702772 L0,27.4702772 C3.22565338,16.0894251 12.5352463,14.3025742 12.5352463,14.3025742 L12.4376581,2.09324473 Z M73.7677773,4.48163455 L72.7749584,14.0729574 C72.7749584,14.0729574 91.2449391,19.4326174 98.1882195,27.4044811 L64.1428373,27.4700986 L65.0469397,0 L73.7677773,4.48163455 Z"></path>
                            </g>
                            <g id="Skin-color" transform="translate(12.460482, 222.898469)" fill="#E576C6" fill-rule="nonzero">
                                <path d="M1.26058163,0 L10.6730051,3.66074551 L10.6197752,15.4236971 L-2.39866045e-13,14.879116 L1.26058163,0 Z M52.3860385,3.20749335 L61.5343286,7.23248327 L61.4556934,15.1945266 L52.1049683,14.8142126 L52.3860385,3.20749335 Z" id="Skin"></path>
                            </g>
                            <g id="Pants" transform="translate(8.845363, 0.000000)" fill="#2F2F3D" fill-rule="nonzero">
                                <path d="M1.51939203,228.549524 C1.9508771,213.671748 4.73738352,119.691335 7.60050879,63.7780342 C9.58453362,25.0235011 24.4324593,3.68663544 27.2189657,0 L62.5967093,0 C62.6612305,0.495033139 67.4232933,37.8082118 68.2947319,115.883732 C69.0770506,185.804819 68.2705365,224.023698 68.1697222,228.518278 L68.1696577,228.520556 L69.2995275,228.518546 L69.3067862,234.537952 L50.9872203,234.570984 L50.9799617,228.551131 L51.6116225,228.550008 L51.6115832,228.549524 L42.3088457,106.192866 L39.5223392,69.5720199 L18.3715054,228.518278 L18.3713686,228.519311 L19.2861731,228.517653 L18.9667935,234.53706 L0,234.570984 L0.319379607,228.552024 L1.51938204,228.54985 L1.51939203,228.549524 Z"></path>
                            </g>
                            <polygon id="Fill-17" fill="#0A0A0F" opacity="0.398065476" points="48.3677026 69.5733144 52.1740462 33.7496989 51.1529993 106.191929"></polygon>
                        </g>
                    </g>
                </g>
            </g>
        </g>
    </g>
</svg>