<?xml version="1.0" encoding="UTF-8"?><svg xmlns="http://www.w3.org/2000/svg" viewBox="0 0 50 50"><defs><style>.d{fill:#00d2d3;}</style></defs><g id="a"/><g id="b"><g id="c"><path class="d" d="M50,24.49C50,10.97,38.81,0,25,0S0,10.97,0,24.49c0,.19,.02,.38,.02,.57,0,.15-.02,.3-.02,.45,0,13.53,11.19,24.49,25,24.49s25-10.97,25-24.49c0-.15-.02-.3-.02-.45,0-.19,.02-.38,.02-.57ZM25,9.9c4.54,0,8.22,3.6,8.22,8.05s-3.68,8.05-8.22,8.05-8.22-3.6-8.22-8.05,3.68-8.05,8.22-8.05Zm-14.59,29.42c-.03-.26-.07-.53-.07-.8,0-6.07,6.56-10.99,14.66-10.99s14.66,4.92,14.66,10.99c0,.27-.04,.53-.07,.8-3.7,3.75-8.87,6.09-14.59,6.09s-10.9-2.34-14.59-6.09Z"/></g></g></svg>